<svg width="140" height="140" viewBox="0 0 140 140" fill="none" xmlns="http://www.w3.org/2000/svg">
<path d="M28.6972 51.74C27.7757 54.6922 27.2543 57.4658 27.067 59.8125C9.75578 54.039 2.3937 89 32.5407 89C36.2229 89 87.1942 89 115.392 89C134.923 89 134.972 50.7128 108.425 56.0108C106.285 50.3332 102.641 38.9775 92.5821 31.3057" stroke="black" stroke-width="10.2367"/>
<path d="M80.168 54.333V67.4411" stroke="black" stroke-width="10.2367"/>
<path d="M44.7139 54.4579V67.9405" stroke="black" stroke-width="10.2367"/>
<path d="M72.8027 73.683H51.4553C51.4553 70.6037 53.4028 64.3202 61.1927 63.8208C68.9826 63.3214 72.1785 70.1876 72.8027 73.683Z" fill="black"/>
<path d="M24.2405 52.8351V22L94.5245 22L84.1629 52.8351H60.943L59.0704 44.8454H51.4553L45.9624 52.8351H24.2405Z" stroke="black" stroke-width="8.48901"/>
<path d="M32.979 43.0977V31.8622H48.7086L41.9674 43.0977H32.979Z" fill="black"/>
<path d="M66.6855 43.2225V31.987H82.4152L76.0484 43.2225H66.6855Z" fill="black"/>
<path d="M28.488 116V98.96H35.64C37.816 98.96 39.496 99.336 40.68 100.088C41.88 100.824 42.48 102 42.48 103.616C42.48 104.304 42.344 104.896 42.072 105.392C41.816 105.888 41.424 106.288 40.896 106.592C40.368 106.88 39.72 107.072 38.952 107.168V107.216C40.376 107.36 41.44 107.784 42.144 108.488C42.848 109.176 43.2 110.112 43.2 111.296C43.2 112.896 42.608 114.08 41.424 114.848C40.24 115.616 38.552 116 36.36 116H28.488ZM33.192 112.4H36.048C36.736 112.4 37.312 112.264 37.776 111.992C38.256 111.704 38.496 111.256 38.496 110.648C38.496 110.04 38.264 109.592 37.8 109.304C37.336 109.016 36.752 108.872 36.048 108.872H33.192V112.4ZM33.192 105.8H35.448C36.12 105.8 36.672 105.672 37.104 105.416C37.552 105.144 37.776 104.736 37.776 104.192C37.776 103.616 37.56 103.2 37.128 102.944C36.696 102.688 36.136 102.56 35.448 102.56H33.192V105.8ZM51.7146 116V98.96H56.4186V115.016L53.7306 112.232H63.8346V116H51.7146ZM78.8991 116.384C77.1071 116.384 75.5631 116.024 74.2671 115.304C72.9711 114.584 71.9791 113.56 71.2911 112.232C70.6031 110.904 70.2591 109.328 70.2591 107.504C70.2591 105.68 70.6031 104.104 71.2911 102.776C71.9791 101.432 72.9711 100.4 74.2671 99.68C75.5631 98.944 77.1071 98.576 78.8991 98.576C80.7071 98.576 82.2511 98.944 83.5311 99.68C84.8271 100.4 85.8191 101.432 86.5071 102.776C87.1951 104.104 87.5391 105.68 87.5391 107.504C87.5391 109.328 87.1951 110.904 86.5071 112.232C85.8191 113.56 84.8271 114.584 83.5311 115.304C82.2511 116.024 80.7071 116.384 78.8991 116.384ZM78.8991 112.616C79.6991 112.616 80.3791 112.416 80.9391 112.016C81.5151 111.616 81.9551 111.04 82.2591 110.288C82.5631 109.52 82.7151 108.592 82.7151 107.504C82.7151 106.416 82.5631 105.488 82.2591 104.72C81.9551 103.952 81.5151 103.368 80.9391 102.968C80.3791 102.552 79.6991 102.344 78.8991 102.344C78.0991 102.344 77.4111 102.552 76.8351 102.968C76.2751 103.368 75.8431 103.952 75.5391 104.72C75.2351 105.488 75.0831 106.416 75.0831 107.504C75.0831 108.592 75.2351 109.52 75.5391 110.288C75.8431 111.04 76.2751 111.616 76.8351 112.016C77.4111 112.416 78.0991 112.616 78.8991 112.616ZM101.334 116.384C99.6704 116.384 98.2384 116.016 97.0384 115.28C95.8384 114.528 94.9104 113.488 94.2544 112.16C93.6144 110.832 93.2944 109.28 93.2944 107.504C93.2944 105.792 93.6224 104.264 94.2784 102.92C94.9504 101.576 95.9104 100.52 97.1584 99.752C98.4064 98.968 99.9104 98.576 101.67 98.576C103.222 98.576 104.526 98.824 105.582 99.32C106.654 99.8 107.51 100.504 108.15 101.432C108.806 102.36 109.27 103.48 109.542 104.792L104.67 104.984C104.526 104.136 104.222 103.488 103.758 103.04C103.294 102.576 102.614 102.344 101.718 102.344C100.95 102.344 100.294 102.56 99.7504 102.992C99.2224 103.424 98.8144 104.024 98.5264 104.792C98.2544 105.56 98.1184 106.464 98.1184 107.504C98.1184 108.528 98.2464 109.424 98.5024 110.192C98.7744 110.96 99.1824 111.56 99.7264 111.992C100.27 112.408 100.966 112.616 101.814 112.616C102.406 112.616 102.91 112.52 103.326 112.328C103.758 112.12 104.102 111.832 104.358 111.464C104.63 111.08 104.806 110.624 104.886 110.096H101.694V106.976H109.59V116H106.854L106.614 112.544L107.142 112.64C106.998 113.392 106.654 114.048 106.11 114.608C105.582 115.168 104.902 115.608 104.07 115.928C103.254 116.232 102.342 116.384 101.334 116.384Z" fill="black"/>
</svg>
