<svg width="140" height="140" viewBox="0 0 140 140" fill="none" xmlns="http://www.w3.org/2000/svg">
<path d="M27.6972 70.74C26.7757 73.6922 26.2543 76.4658 26.067 78.8125C8.75578 73.039 1.3937 108 31.5407 108C35.2229 108 86.1942 108 114.392 108C133.923 108 133.972 69.7128 107.425 75.0108C105.285 69.3332 101.641 57.9775 91.5821 50.3057" stroke="black" stroke-width="10.2367"/>
<path d="M79.168 73.333V86.4411" stroke="black" stroke-width="10.2367"/>
<path d="M43.7139 73.4579V86.9405" stroke="black" stroke-width="10.2367"/>
<path d="M71.8027 92.683H50.4553C50.4553 89.6037 52.4028 83.3202 60.1927 82.8208C67.9826 82.3214 71.1785 89.1876 71.8027 92.683Z" fill="black"/>
<path d="M23.2405 71.8351V41H93.5245L83.1629 71.8351H59.943L58.0704 63.8454H50.4553L44.9624 71.8351H23.2405Z" stroke="black" stroke-width="8.48901"/>
<path d="M31.979 62.0977V50.8622H47.7086L40.9674 62.0977H31.979Z" fill="black"/>
<path d="M65.6855 62.2225V50.987H81.4152L75.0484 62.2225H65.6855Z" fill="black"/>
</svg>
